# xmcd
#
# Track frame offsets:
#	182
#	18395
#	45040
#	67500
#	86675
#	113302
#	139212
#	155370
#	176092
#	200022
#	216937
#	241372
#
# Disc length: 3499 seconds
# Revision: 4
# Processed by: cddbd v1.5.2PL0 Copyright (c) Steve Scherf et al.
# Submitted via: dBpowerAMP V12.0
#
DISCID=940da90c
DTITLE=Various Artist - Smooth Grooves: Wedding Songs [Rhino R2 72757]
DYEAR=1998
DGENRE=Soul
TTITLE0=Four Tops - I Believe In You and Me
TTITLE1=DeBarge - All This Love
TTITLE2=Marilyn McCoo and Billy Davis, Jr. - My Reason To Be Is You
TTITLE3=Peaches and Herb - I Pledge My Love
TTITLE4=Atlantic Star - Unconditional Love
TTITLE5=Kool and The Gang - Cherish (Remix)
TTITLE6=Larry Graham - When We Get Married
TTITLE7=Dreamboy - I Promise (I Do Love You)
TTITLE8=Deniece Williams - You're All That Matters
TTITLE9=Stevie Wonder - Ribbon In The Sky
TTITLE10="D" Train - You're The Reason
TTITLE11=Klymaxx - I'd Still Say Yes
EXTD=
EXTT0=
EXTT1=
EXTT2=
EXTT3=
EXTT4=
EXTT5=
EXTT6=
EXTT7=
EXTT8=
EXTT9=
EXTT10=
EXTT11=
PLAYORDER=
